<svg width="60" height="120" viewBox="0 0 60 120" fill="none" xmlns="http://www.w3.org/2000/svg">
<rect width="60" height="120" fill="white"/>
<path d="M3 3C24 4 35 3 57 3" stroke="black" stroke-width="0.5"/>
<path d="M3.17678 3.17678C3.27441 3.07915 3.27441 2.92085 3.17678 2.82322C3.07915 2.72559 2.92086 2.72559 2.82322 2.82322L3.17678 3.17678ZM2.82322 2.82322C1.22559 4.42085 1.22559 7.07915 2.82322 8.67678L3.17678 8.32322C1.77441 6.92085 1.7744 4.57915 3.17678 3.17678L2.82322 2.82322Z" fill="black"/>
<path d="M57.2 2.85C57.1172 2.73954 56.9605 2.71716 56.85 2.8C56.7396 2.88284 56.7172 3.03954 56.8 3.15L57.2 2.85ZM57.6075 4V4.25H57.9972L57.8347 3.89575L57.6075 4ZM57.9209 5.07563L58.169 5.04477L58.1463 4.86212L57.9651 4.82957L57.9209 5.07563ZM53 5L52.9458 4.75595L53 5.25V5ZM56.8 3.15C57.051 3.48467 57.2412 3.80105 57.3803 4.10425L57.8347 3.89575C57.6786 3.55538 57.4689 3.20856 57.2 2.85L56.8 3.15ZM57.6728 5.10649C57.8005 6.1332 57.4054 7.13024 56.7764 8.3882L57.2236 8.6118C57.8507 7.35755 58.3173 6.23683 58.169 5.04477L57.6728 5.10649ZM57.6075 3.75C57.5798 3.75 57.5503 3.7552 57.5448 3.75609C57.5301 3.75848 57.512 3.76174 57.4917 3.76556C57.4509 3.77325 57.3955 3.78431 57.3284 3.79807C57.194 3.82564 57.0085 3.86489 56.7898 3.91181C56.3522 4.00569 55.7791 4.1308 55.2098 4.25582C54.6404 4.38086 54.0744 4.50589 53.6508 4.59966C53.439 4.64654 53.2627 4.68561 53.1394 4.71296C53.0778 4.72664 53.0294 4.73739 52.9964 4.74471C52.9799 4.74838 52.9672 4.75119 52.9587 4.75308C52.9544 4.75403 52.9512 4.75474 52.949 4.75523C52.948 4.75547 52.9471 4.75565 52.9466 4.75577C52.9463 4.75583 52.9461 4.75588 52.946 4.75591C52.9459 4.75592 52.9459 4.75593 52.9458 4.75594C52.9458 4.75595 52.9458 4.75595 53 5C53.0542 5.24405 53.0542 5.24404 53.0543 5.24404C53.0543 5.24403 53.0544 5.24402 53.0544 5.244C53.0546 5.24397 53.0548 5.24393 53.055 5.24387C53.0556 5.24374 53.0564 5.24356 53.0575 5.24332C53.0596 5.24284 53.0629 5.24213 53.0671 5.24118C53.0756 5.23929 53.0883 5.23649 53.1048 5.23283C53.1377 5.2255 53.1861 5.21477 53.2477 5.2011C53.3709 5.17376 53.5471 5.13471 53.7588 5.08784C54.1823 4.99411 54.748 4.86914 55.3171 4.74418C55.8862 4.6192 56.4583 4.49431 56.8947 4.40069C57.113 4.35386 57.2967 4.31498 57.4289 4.28787C57.4951 4.27429 57.5474 4.26386 57.5843 4.25691C57.6029 4.2534 57.6162 4.25104 57.6248 4.24964C57.6427 4.24675 57.6285 4.25 57.6075 4.25V3.75ZM53 5C53 5.25 53 5.25 53 5.25C53.0001 5.25 53.0001 5.25 53.0002 5.25C53.0003 5.25 53.0005 5.25 53.0008 5.25C53.0013 5.25 53.0022 5.25 53.0032 5.25C53.0054 5.25 53.0086 5.25 53.0129 5.25C53.0214 5.25 53.034 5.25001 53.0505 5.25002C53.0835 5.25004 53.132 5.25007 53.1939 5.25015C53.3176 5.2503 53.4949 5.25059 53.709 5.25118C54.1372 5.25236 54.7124 5.25472 55.3006 5.25945C55.889 5.26417 56.4896 5.27125 56.9689 5.28184C57.2087 5.28714 57.4169 5.2933 57.5775 5.30042C57.7456 5.30786 57.8438 5.31578 57.8767 5.32169L57.9651 4.82957C57.8927 4.81656 57.7583 4.80794 57.5997 4.80091C57.4336 4.79355 57.2212 4.7873 56.98 4.78197C56.4971 4.77129 55.8938 4.76419 55.3046 4.75946C54.7152 4.75473 54.1391 4.75236 53.7104 4.75118C53.496 4.75059 53.3185 4.7503 53.1945 4.75015C53.1325 4.75007 53.0839 4.75004 53.0508 4.75002C53.0342 4.75001 53.0215 4.75 53.013 4.75C53.0087 4.75 53.0055 4.75 53.0033 4.75C53.0022 4.75 53.0014 4.75 53.0008 4.75C53.0006 4.75 53.0004 4.75 53.0002 4.75C53.0001 4.75 53.0001 4.75 53.0001 4.75C53 4.75 53 4.75 53 5Z" fill="black"/>
<path d="M3 8.5C24 8.5 35.5 7.5 57 8.5" stroke="black" stroke-width="0.5"/>
<path d="M3.5 3C4.95457 4.16366 5.22431 5.32731 4.9001 6.39249C5 6.5 7 7 7 7C7 7 4.87095 7.26361 4.5 7.26361C4.2323 7.70271 3.8824 8.1176 3.5 8.5" stroke="black" stroke-width="0.5"/>
<path d="M3.32284 110.994C3.31967 111.132 3.42899 111.247 3.56703 111.25C3.70506 111.253 3.81953 111.144 3.82271 111.006L3.32284 110.994ZM4 31.5L4.24998 31.4972L4 31.5ZM4 33L3.75002 33.0028L4 33ZM8 31.5L8.1118 31.7236L8 31.25V31.5ZM3.02429 11.6129L2.77434 11.6181L3.02429 11.6129ZM3.02429 13L2.77439 13.0069L3.02429 13ZM9.5 11.6129L9.54661 11.8586L9.49395 11.363L9.5 11.6129ZM4.11467 45L4.36466 44.9981L4.11467 45ZM4.12072 45.8015L3.87073 45.8034L4.12072 45.8015ZM4.13607 48L4.38607 47.9984L4.13607 48ZM4.18333 60L3.93333 60.0003L4.18333 60ZM4.18447 62L3.93447 62L4.18447 62ZM4.18447 68.5L3.93447 68.4989L4.18447 68.5ZM4.18447 70.5L4.43447 70.5016L4.18447 70.5ZM9.5 69L9.6118 69.2236L9.5 68.75V69ZM3.97512 89.5L4.2251 89.5037L3.97512 89.5ZM4 91L4.24997 91.004L4.24997 91.004L4 91ZM3.8678 98L3.61785 97.9947L3.8678 98ZM3.84428 99.1024L3.59434 99.0971L3.84428 99.1024ZM6 98.5L6.04585 98.7458L6.03858 98.253L6 98.5ZM3.75002 31.5028C3.7511 31.5988 3.80332 31.6613 3.83442 31.6894C3.86474 31.7169 3.89495 31.7311 3.90966 31.7375C3.9406 31.7508 3.97032 31.7572 3.98675 31.7603C4.02388 31.7675 4.06852 31.772 4.11286 31.7752C4.20457 31.782 4.33176 31.7859 4.48124 31.788C4.78183 31.7923 5.19099 31.7895 5.6286 31.7838C6.50855 31.7725 7.50177 31.75 8 31.75V31.25C7.49823 31.25 6.49196 31.2726 5.62216 31.2839C5.1849 31.2895 4.78162 31.2923 4.48836 31.2881C4.34093 31.286 4.22584 31.2822 4.14944 31.2766C4.10973 31.2737 4.08885 31.2708 4.08146 31.2694C4.07563 31.2683 4.08832 31.27 4.10779 31.2784C4.11677 31.2823 4.14263 31.294 4.17002 31.3188C4.1982 31.3443 4.24894 31.404 4.24998 31.4972L3.75002 31.5028ZM7.8882 31.2764C7.4065 31.5172 6.425 31.8642 5.54322 32.1679C5.10755 32.3179 4.69854 32.4567 4.40008 32.563C4.2512 32.616 4.12548 32.6625 4.03579 32.6993C3.99197 32.7172 3.95037 32.7354 3.91733 32.7528C3.90204 32.7609 3.87906 32.7736 3.85674 32.7907C3.84604 32.7989 3.82637 32.8148 3.80718 32.8387C3.79188 32.8578 3.74905 32.9158 3.75002 33.0028L4.24998 32.9972C4.25092 33.0814 4.20952 33.1363 4.19709 33.1517C4.18076 33.1721 4.16538 33.1841 4.16036 33.1879C4.1494 33.1963 4.14334 33.1989 4.15022 33.1953C4.16152 33.1893 4.18526 33.1784 4.22536 33.1619C4.30351 33.1299 4.41988 33.0867 4.56784 33.034C4.86303 32.9289 5.26658 32.792 5.70604 32.6406C6.57451 32.3415 7.5935 31.9828 8.1118 31.7236L7.8882 31.2764ZM2.75015 8.49845C2.74365 9.54798 2.75294 10.5879 2.77434 11.6181L3.27424 11.6077C3.25291 10.5815 3.24367 9.54609 3.25014 8.50155L2.75015 8.49845ZM2.77439 13.0069C2.87054 16.4653 3.09782 19.5798 3.30914 22.5828C3.52057 25.5872 3.71597 28.4793 3.75002 31.5028L4.24998 31.4972C4.21575 28.4571 4.01928 25.5513 3.80791 22.5477C3.59643 19.5426 3.37 16.4389 3.27419 12.9931L2.77439 13.0069ZM2.77434 11.6181C2.77682 11.7372 2.85516 11.8027 2.88223 11.8223C2.91427 11.8456 2.94545 11.8574 2.96099 11.8628C2.99494 11.8746 3.03099 11.8814 3.05887 11.8857C3.11858 11.8951 3.1979 11.902 3.28841 11.9074C3.47194 11.9185 3.72994 11.9253 4.03447 11.929C4.64485 11.9363 5.45668 11.9314 6.26639 11.9216C7.07656 11.9118 7.88645 11.8971 8.49367 11.8849C8.79731 11.8788 9.05034 11.8733 9.22749 11.8693C9.31607 11.8673 9.38568 11.8657 9.43315 11.8646C9.45689 11.864 9.4751 11.8636 9.48738 11.8633C9.49352 11.8632 9.49818 11.8631 9.50131 11.863C9.50287 11.8629 9.50405 11.8629 9.50484 11.8629C9.50524 11.8629 9.50554 11.8629 9.50574 11.8629C9.50584 11.8629 9.50591 11.8629 9.50597 11.8629C9.50602 11.8629 9.50605 11.8629 9.5 11.6129C9.49395 11.363 9.49393 11.363 9.49389 11.363C9.49384 11.363 9.49377 11.363 9.49367 11.363C9.49348 11.363 9.49319 11.363 9.4928 11.363C9.49202 11.3631 9.49086 11.3631 9.48931 11.3631C9.48622 11.3632 9.48159 11.3633 9.47549 11.3635C9.46327 11.3637 9.44513 11.3642 9.42147 11.3647C9.37413 11.3658 9.30468 11.3674 9.21627 11.3694C9.03944 11.3734 8.78679 11.3789 8.48359 11.385C7.87712 11.3972 7.06869 11.4119 6.26034 11.4217C5.45153 11.4314 4.64463 11.4363 4.04051 11.429C3.73779 11.4253 3.4896 11.4187 3.31854 11.4083C3.23176 11.4031 3.17169 11.3973 3.13624 11.3917C3.11653 11.3887 3.11605 11.3874 3.12532 11.3906C3.12852 11.3917 3.15031 11.3991 3.17603 11.4178C3.19678 11.4328 3.27186 11.4936 3.27424 11.6077L2.77434 11.6181ZM9.5 11.6129C9.45339 11.3673 9.45336 11.3673 9.45331 11.3673C9.45326 11.3673 9.45318 11.3674 9.45308 11.3674C9.45288 11.3674 9.45258 11.3675 9.45218 11.3676C9.45139 11.3677 9.45021 11.3679 9.44864 11.3682C9.44551 11.3688 9.44085 11.3697 9.4347 11.3709C9.42241 11.3732 9.40418 11.3767 9.38042 11.3812C9.33289 11.3903 9.26321 11.4036 9.17454 11.4206C8.99721 11.4545 8.74391 11.5032 8.43998 11.5621C7.83218 11.6799 7.02162 11.8387 6.21101 12.0024C5.40084 12.1661 4.58891 12.335 3.97907 12.4731C3.67475 12.542 3.41742 12.604 3.23492 12.6542C3.14473 12.6791 3.0667 12.7027 3.00879 12.7243C2.98135 12.7346 2.94825 12.7481 2.91837 12.7652C2.90442 12.7731 2.87915 12.7886 2.85427 12.8128C2.83671 12.83 2.77133 12.8971 2.77439 13.0069L3.27419 12.9931C3.27711 13.098 3.21477 13.1597 3.2033 13.1709C3.18452 13.1892 3.16841 13.1982 3.16659 13.1992C3.16098 13.2024 3.16402 13.2001 3.1838 13.1927C3.22033 13.179 3.28107 13.1601 3.36766 13.1363C3.5387 13.0892 3.78691 13.0293 4.08948 12.9608C4.69343 12.824 5.5007 12.656 6.31 12.4926C7.11887 12.3292 7.92805 12.1707 8.53513 12.053C8.83864 11.9942 9.09157 11.9455 9.26859 11.9116C9.35711 11.8947 9.42664 11.8814 9.47403 11.8724C9.49773 11.8679 9.51589 11.8644 9.52812 11.8621C9.53423 11.8609 9.53886 11.86 9.54196 11.8594C9.54351 11.8591 9.54468 11.8589 9.54546 11.8588C9.54584 11.8587 9.54614 11.8586 9.54633 11.8586C9.54643 11.8586 9.5465 11.8586 9.54655 11.8586C9.54659 11.8586 9.54661 11.8586 9.5 11.6129ZM3.75002 33.0028C3.79607 37.1371 3.83479 41.1151 3.86468 45.0019L4.36466 44.9981C4.33477 41.1105 4.29604 37.132 4.24998 32.9972L3.75002 33.0028ZM3.86468 45.0019C3.86674 45.2695 3.86875 45.5366 3.87073 45.8034L4.37071 45.7997C4.36874 45.5329 4.36672 45.2657 4.36466 44.9981L3.86468 45.0019ZM3.87073 45.8034C3.87144 45.9001 3.91916 45.9702 3.96014 46.0109C3.99903 46.0496 4.04289 46.0739 4.07592 46.0893C4.14272 46.1205 4.22398 46.1418 4.30413 46.158C4.46884 46.1912 4.69421 46.2152 4.95292 46.2331C5.47369 46.2691 6.16838 46.2827 6.873 46.2851C7.57889 46.2876 8.29979 46.2787 8.87488 46.2693C9.45381 46.2599 9.8776 46.25 10 46.25V45.75C9.8724 45.75 9.43661 45.7601 8.86671 45.7694C8.29297 45.7788 7.57581 45.7875 6.87471 45.7851C6.17234 45.7827 5.49112 45.7691 4.9874 45.7343C4.73387 45.7168 4.53485 45.6945 4.40306 45.6679C4.33497 45.6541 4.29996 45.6421 4.28746 45.6363C4.28084 45.6332 4.2943 45.6381 4.31266 45.6563C4.3331 45.6766 4.37016 45.7253 4.37071 45.7997L3.87073 45.8034ZM10 45.75C9.90305 45.75 9.73437 45.7837 9.54784 45.8271C9.34862 45.8733 9.09437 45.9393 8.80597 46.0188C8.22877 46.1781 7.50773 46.3941 6.80281 46.6217C6.09869 46.849 5.40621 47.0893 4.88779 47.2975C4.62976 47.4012 4.40769 47.4996 4.24729 47.587C4.16828 47.63 4.09427 47.6756 4.03675 47.7231C4.00816 47.7468 3.9755 47.7775 3.9482 47.8155C3.92247 47.8513 3.88551 47.9159 3.88608 48.0016L4.38607 47.9984C4.38648 48.0607 4.35985 48.0994 4.35431 48.1071C4.34721 48.117 4.3446 48.1174 4.3553 48.1085C4.37637 48.0911 4.41789 48.0634 4.48636 48.0261C4.62092 47.9529 4.8216 47.8629 5.07413 47.7615C5.57684 47.5596 6.25675 47.3234 6.95642 47.0975C7.65529 46.8719 8.36944 46.658 8.93899 46.5008C9.22396 46.4222 9.47097 46.3582 9.66092 46.3141C9.75603 46.292 9.83485 46.2754 9.89593 46.2644C9.92645 46.2589 9.95103 46.2551 9.97004 46.2528C9.97947 46.2516 9.9868 46.2509 9.99226 46.2504C9.99791 46.25 10.0003 46.25 10 46.25V45.75ZM3.88608 48.0016C3.91269 52.0583 3.92903 56.0323 3.93333 60.0003L4.43333 59.9997C4.42903 56.0307 4.41268 52.0558 4.38607 47.9984L3.88608 48.0016ZM3.93333 60.0003C3.93343 60.0914 3.97579 60.1587 4.01188 60.1986C4.04669 60.237 4.08643 60.2627 4.11687 60.2795C4.17814 60.3133 4.25252 60.3383 4.32514 60.3583C4.4743 60.3992 4.6777 60.4348 4.9102 60.4665C5.37844 60.5302 6.00313 60.5827 6.63789 60.6245C7.90738 60.708 9.24243 60.75 9.5 60.75V60.25C9.25757 60.25 7.93447 60.2087 6.67071 60.1255C6.03885 60.084 5.42814 60.0323 4.9776 59.971C4.7507 59.9402 4.57387 59.9081 4.45761 59.8761C4.39753 59.8596 4.3679 59.8469 4.35833 59.8416C4.35336 59.8389 4.36597 59.8447 4.3825 59.863C4.40032 59.8826 4.43325 59.9294 4.43333 59.9997L3.93333 60.0003ZM9.5 60.25C9.41094 60.25 9.25819 60.2731 9.08344 60.3048C8.89979 60.3381 8.66742 60.3857 8.40489 60.4433C7.87952 60.5587 7.22736 60.7157 6.59109 60.8832C5.95572 61.0505 5.33163 61.2293 4.86418 61.3883C4.63173 61.4674 4.43037 61.5441 4.28399 61.6145C4.21213 61.6491 4.14267 61.6872 4.08754 61.7291C4.06015 61.7499 4.02736 61.7782 3.9994 61.8149C3.97263 61.8501 3.93447 61.9139 3.93447 62L4.43447 62C4.43447 62.0653 4.40572 62.1066 4.39719 62.1178C4.38749 62.1306 4.3818 62.1334 4.3898 62.1274C4.40545 62.1155 4.43994 62.0944 4.50072 62.0651C4.61965 62.0079 4.79841 61.9388 5.02522 61.8617C5.47631 61.7082 6.08735 61.5328 6.71836 61.3668C7.34848 61.2009 7.99395 61.0455 8.51213 60.9317C8.77137 60.8747 8.99724 60.8286 9.17264 60.7968C9.35695 60.7634 9.46406 60.75 9.5 60.75V60.25ZM3.93447 62C3.93461 64.7182 3.94645 65.7522 3.93447 68.4989L4.43447 68.5011C4.44645 65.7532 4.43461 64.7143 4.43447 62L3.93447 62ZM3.93447 68.4989C3.93395 68.619 3.98944 68.714 4.05405 68.78C4.11554 68.8429 4.1926 68.8881 4.26682 68.9222C4.41567 68.9905 4.61285 69.0404 4.82923 69.0791C5.26673 69.1574 5.85143 69.2015 6.45598 69.2264C7.66703 69.2761 9.00725 69.25 9.5 69.25V68.75C8.99275 68.75 7.67389 68.776 6.47651 68.7268C5.87685 68.7021 5.32001 68.659 4.91734 68.5869C4.71364 68.5505 4.56609 68.5094 4.47538 68.4677C4.45391 68.4579 4.43816 68.4491 4.42706 68.442C4.42162 68.4384 4.41771 68.4356 4.41508 68.4335C4.41243 68.4314 4.41137 68.4303 4.41144 68.4303C4.41259 68.4315 4.43466 68.4565 4.43447 68.5011L3.93447 68.4989ZM9.3882 68.7764C9.17269 68.8841 8.74908 68.9933 8.19793 69.1064C7.65468 69.2178 7.03064 69.3253 6.42214 69.4411C5.82106 69.5554 5.23708 69.6775 4.80086 69.8154C4.58442 69.8838 4.38857 69.9609 4.24202 70.0511C4.11242 70.1309 3.93593 70.2735 3.93448 70.4984L4.43447 70.5016C4.43409 70.5592 4.39327 70.5452 4.50417 70.4769C4.59812 70.4191 4.74761 70.3566 4.95158 70.2921C5.35618 70.1642 5.91331 70.0469 6.51557 69.9323C7.11041 69.8191 7.75195 69.7083 8.29844 69.5962C8.83701 69.4856 9.32731 69.3659 9.6118 69.2236L9.3882 68.7764ZM3.93448 70.4984C3.89871 76.0347 3.82733 82.5868 3.72515 89.4963L4.2251 89.5037C4.3273 82.5931 4.39869 76.0396 4.43447 70.5016L3.93448 70.4984ZM3.72515 89.4963C3.72292 89.6472 3.79815 89.7686 3.87604 89.8542C3.95519 89.9413 4.05918 90.0165 4.16861 90.0814C4.38858 90.212 4.67715 90.3281 4.96905 90.4243C5.26349 90.5213 5.57318 90.6019 5.84207 90.6585C6.10519 90.7138 6.34741 90.75 6.5 90.75V90.25C6.40259 90.25 6.20328 90.2235 5.94496 90.1692C5.69241 90.1161 5.40075 90.0401 5.12555 89.9494C4.8478 89.8579 4.59845 89.7551 4.42381 89.6515C4.33595 89.5993 4.27847 89.5536 4.24594 89.5178C4.21215 89.4807 4.22549 89.4773 4.2251 89.5037L3.72515 89.4963ZM6.5 90.25C6.25118 90.25 5.61505 90.2494 5.0379 90.3135C4.75173 90.3453 4.4629 90.3946 4.23906 90.4751C4.1279 90.5151 4.01576 90.5686 3.92694 90.6444C3.83479 90.723 3.7525 90.8402 3.75003 90.996L4.24997 91.004C4.24949 91.0344 4.23119 91.042 4.25145 91.0247C4.27505 91.0046 4.32374 90.976 4.40827 90.9456C4.5758 90.8853 4.81773 90.841 5.09306 90.8104C5.63893 90.7499 6.24882 90.75 6.5 90.75V90.25ZM3.75003 90.996C3.71564 93.1657 3.66942 95.5499 3.61785 97.9947L4.11774 98.0053C4.16932 95.56 4.21556 93.1749 4.24997 91.004L3.75003 90.996ZM3.59434 99.0971C3.50597 103.196 3.40547 107.399 3.32284 110.994L3.82271 111.006C3.90533 107.411 4.00585 103.208 4.09423 99.1078L3.59434 99.0971ZM3.61785 97.9947C3.61484 98.1378 3.71934 98.2167 3.74119 98.2331C3.77993 98.2621 3.82364 98.2834 3.85938 98.2988C3.93385 98.3309 4.03051 98.3613 4.13347 98.3895C4.34244 98.4467 4.61646 98.5054 4.88466 98.5578C5.15421 98.6104 5.4233 98.6577 5.62464 98.6918C5.7254 98.7088 5.80942 98.7226 5.86831 98.7321C5.89776 98.7369 5.92094 98.7406 5.93681 98.7431C5.94474 98.7444 5.95084 98.7453 5.95499 98.746C5.95706 98.7463 5.95864 98.7466 5.95972 98.7467C5.96026 98.7468 5.96067 98.7469 5.96095 98.7469C5.9611 98.747 5.96121 98.747 5.96128 98.747C5.96132 98.747 5.96136 98.747 5.96138 98.747C5.9614 98.747 5.96142 98.747 6 98.5C6.03858 98.253 6.03858 98.253 6.03858 98.253C6.03856 98.253 6.03855 98.253 6.03852 98.253C6.03847 98.253 6.03838 98.253 6.03827 98.2529C6.03803 98.2529 6.03767 98.2529 6.03718 98.2528C6.03621 98.2526 6.03473 98.2524 6.03276 98.2521C6.02882 98.2515 6.02294 98.2505 6.01523 98.2493C5.99981 98.2469 5.97711 98.2432 5.94816 98.2385C5.89028 98.2292 5.80747 98.2156 5.70806 98.1988C5.50907 98.1651 5.24445 98.1186 4.98051 98.067C4.71522 98.0152 4.45597 97.9593 4.26548 97.9072C4.16871 97.8807 4.0991 97.8577 4.05743 97.8397C4.03511 97.8301 4.0333 97.8271 4.04114 97.833C4.04518 97.836 4.06081 97.848 4.07702 97.8707C4.09374 97.8941 4.11911 97.9407 4.11774 98.0053L3.61785 97.9947ZM6 98.5C5.95415 98.2542 5.95413 98.2542 5.95411 98.2542C5.95409 98.2543 5.95405 98.2543 5.95401 98.2543C5.95393 98.2543 5.95382 98.2543 5.95367 98.2543C5.95338 98.2544 5.95296 98.2545 5.95242 98.2546C5.95132 98.2548 5.94972 98.2551 5.94762 98.2555C5.94343 98.2563 5.93726 98.2574 5.92925 98.2589C5.91323 98.262 5.88984 98.2664 5.86013 98.2722C5.8007 98.2837 5.71594 98.3003 5.61426 98.3208C5.41113 98.3619 5.13947 98.4188 4.86702 98.4823C4.59607 98.5455 4.3183 98.6164 4.1055 98.6858C4.00061 98.7199 3.90144 98.7569 3.82456 98.7961C3.78716 98.8152 3.74307 98.8407 3.70465 98.8743C3.67505 98.9002 3.59697 98.9751 3.59434 99.0971L4.09423 99.1078C4.09314 99.1584 4.07538 99.1957 4.06232 99.2164C4.04965 99.2365 4.03738 99.2476 4.03377 99.2507C4.02734 99.2564 4.02992 99.2527 4.05176 99.2415C4.09336 99.2203 4.16298 99.1929 4.26038 99.1612C4.45219 99.0987 4.71308 99.0316 4.98051 98.9693C5.24645 98.9073 5.51291 98.8514 5.7133 98.8109C5.81338 98.7907 5.89673 98.7744 5.95497 98.7631C5.98409 98.7575 6.00692 98.7531 6.02242 98.7502C6.03017 98.7487 6.03608 98.7476 6.04003 98.7469C6.04201 98.7465 6.04349 98.7462 6.04446 98.746C6.04495 98.7459 6.04531 98.7459 6.04554 98.7458C6.04566 98.7458 6.04574 98.7458 6.04579 98.7458C6.04582 98.7458 6.04583 98.7458 6.04585 98.7458C6.04585 98.7458 6.04585 98.7458 6 98.5Z" fill="black"/>
<path d="M56.75 111.2C56.75 111.338 56.8619 111.45 57 111.45C57.1381 111.45 57.25 111.338 57.25 111.2H56.75ZM56.784 18.5V18.75H57.0295L57.0339 18.5045L56.784 18.5ZM56.784 21.5L57.034 21.5036L57.036 21.3642L56.9184 21.2892L56.784 21.5ZM50 19.5V19.25L49.9209 19.7372L50 19.5ZM56.6399 37L56.7128 37.2391L56.8891 37.1854L56.8899 37.001L56.6399 37ZM56.6399 38.5L56.8899 38.5007L56.8906 38.25H56.6399V38.5ZM53 38L52.921 37.7628L52.2094 38L52.921 38.2372L53 38ZM56.6621 49.5V49.75H56.9133L56.9121 49.4988L56.6621 49.5ZM56.6621 51.5L56.9121 51.4985L56.911 51.3152L56.7358 51.2611L56.6621 51.5ZM52.5 50V49.75L52.4209 50.2372L52.5 50ZM56.838 80.129L57.0451 80.269L57.0887 80.2046L57.088 80.1269L56.838 80.129ZM56.838 83.3726L57.088 83.3707L57.087 83.2383L56.9769 83.1647L56.838 83.3726ZM49 81.5L48.8882 81.2764L48.441 81.5L48.8882 81.7236L49 81.5ZM56.9946 107.203L57.1233 107.417L57.2449 107.344L57.2446 107.202L56.9946 107.203ZM57 108.5L57.25 108.5L57.2497 108.25H57V108.5ZM54 108L53.8882 107.776L53.441 108L53.8882 108.224L54 108ZM56.7501 8.49376C56.6638 11.9508 56.5925 15.2772 56.534 18.4955L57.0339 18.5045C57.0924 15.2874 57.1637 11.9621 57.2499 8.50624L56.7501 8.49376ZM56.784 18.25C56.5637 18.25 56.0812 18.3169 55.4949 18.4093C54.8985 18.5033 54.1668 18.6287 53.4312 18.7535C52.6944 18.8786 51.9533 19.0032 51.3343 19.0965C50.7075 19.1911 50.2275 19.25 50 19.25V19.75C50.2725 19.75 50.7924 19.6839 51.4089 19.591C52.0332 19.4968 52.7786 19.3714 53.5148 19.2465C54.2522 19.1213 54.98 18.9967 55.5728 18.9032C56.1758 18.8081 56.6123 18.75 56.784 18.75V18.25ZM49.9209 19.7372C50.6807 19.9904 52.1954 20.3692 53.5963 20.7416C54.3011 20.929 54.9798 21.1154 55.5303 21.2857C55.8056 21.3709 56.0461 21.4512 56.2403 21.5248C56.4387 21.6 56.5745 21.6629 56.6496 21.7108L56.9184 21.2892C56.7975 21.2121 56.6212 21.1344 56.4175 21.0572C56.2097 20.9785 55.9583 20.8947 55.6781 20.808C55.1174 20.6346 54.4304 20.446 53.7247 20.2584C52.3046 19.8808 50.8193 19.5096 50.0791 19.2628L49.9209 19.7372ZM56.534 21.4964C56.4559 26.8594 56.4109 31.9951 56.3899 36.999L56.8899 37.001C56.9109 31.9988 56.9559 26.8648 57.034 21.5036L56.534 21.4964ZM56.567 36.7609C55.7549 37.0085 55.2264 37.132 54.7088 37.257C54.1882 37.3827 53.6805 37.5096 52.921 37.7628L53.0791 38.2372C53.8195 37.9904 54.3118 37.8673 54.8262 37.743C55.3436 37.618 55.885 37.4915 56.7128 37.2391L56.567 36.7609ZM52.921 38.2372C54.4608 38.7504 55.4942 38.75 56.6399 38.75V38.25C55.5058 38.25 54.5393 38.2496 53.0791 37.7628L52.921 38.2372ZM56.3899 38.4993C56.3747 43.8981 56.3859 44.1976 56.4121 49.5012L56.9121 49.4988C56.8859 44.1949 56.8747 43.8972 56.8899 38.5007L56.3899 38.4993ZM56.6621 49.25C55.8077 49.25 54.9988 49.3785 54.2893 49.5038C53.5671 49.6314 52.9718 49.75 52.5 49.75V50.25C53.0282 50.25 53.6829 50.1186 54.3762 49.9962C55.0822 49.8715 55.8544 49.75 56.6621 49.75V49.25ZM52.4209 50.2372C53.1653 50.4853 53.9103 50.7687 54.6193 51.0369C55.3255 51.304 55.9985 51.5569 56.5884 51.7389L56.7358 51.2611C56.1636 51.0846 55.5056 50.8375 54.7962 50.5692C54.0897 50.302 53.3347 50.0147 52.5791 49.7628L52.4209 50.2372ZM56.4121 51.5015C56.4548 58.6306 56.5236 72.4634 56.588 80.1311L57.088 80.1269C57.0236 72.46 56.9548 58.6287 56.9121 51.4985L56.4121 51.5015ZM56.6309 79.989C56.6511 79.9591 56.6619 79.9662 56.6015 79.9938C56.552 80.0164 56.4783 80.0422 56.3782 80.0701C56.1789 80.1255 55.9036 80.1813 55.57 80.2373C54.9041 80.3491 54.0345 80.4573 53.1371 80.5663C52.2428 80.675 51.3216 80.7843 50.5621 80.8979C50.1822 80.9547 49.839 81.013 49.5574 81.0736C49.2828 81.1327 49.0442 81.1984 48.8882 81.2764L49.1118 81.7236C49.2058 81.6766 49.3891 81.6213 49.6626 81.5624C49.9292 81.5051 50.2605 81.4485 50.636 81.3924C51.387 81.2801 52.2995 81.1718 53.1974 81.0627C54.0923 80.9539 54.9736 80.8444 55.6527 80.7304C55.9916 80.6735 56.2874 80.6143 56.5122 80.5518C56.6241 80.5207 56.7258 80.4867 56.8091 80.4487C56.8815 80.4157 56.9827 80.3613 57.0451 80.269L56.6309 79.989ZM48.8882 81.7236C49.0374 81.7982 49.2609 81.8704 49.5224 81.9411C49.7888 82.0132 50.1118 82.0881 50.4699 82.165C51.1859 82.3185 52.0554 82.4823 52.9155 82.6479C53.7781 82.8139 54.6317 82.9818 55.3241 83.1446C55.6704 83.2261 55.9725 83.3053 56.2132 83.3815C56.4611 83.4599 56.6207 83.5281 56.6991 83.5804L56.9769 83.1647C56.8345 83.0695 56.6148 82.9841 56.364 82.9048C56.1062 82.8232 55.7903 82.7406 55.4385 82.6579C54.7347 82.4924 53.8715 82.3227 53.01 82.1569C52.1461 81.9906 51.2841 81.8282 50.5748 81.6761C50.2203 81.6 49.907 81.5272 49.6529 81.4585C49.394 81.3884 49.2126 81.3268 49.1118 81.2764L48.8882 81.7236ZM56.588 83.3745C56.644 90.6087 56.7233 99.0372 56.7446 107.204L57.2446 107.202C57.2233 99.0342 57.1439 90.6036 57.088 83.3707L56.588 83.3745ZM56.75 108.5C56.7509 109.161 56.75 110.545 56.75 111.2H57.25C57.25 110.546 57.2509 109.16 57.25 108.5L56.75 108.5ZM56.8659 106.989C56.7803 107.04 56.6294 107.089 56.405 107.138C56.1858 107.186 55.9293 107.228 55.6432 107.279C55.0844 107.378 54.425 107.508 53.8882 107.776L54.1118 108.224C54.575 107.992 55.1656 107.872 55.7305 107.772C56.0062 107.723 56.2799 107.678 56.5123 107.627C56.7395 107.577 56.9616 107.514 57.1233 107.417L56.8659 106.989ZM53.8882 108.224C54.4273 108.493 55.0866 108.622 55.6599 108.686C56.2372 108.75 56.7491 108.75 57 108.75V108.25C56.7509 108.25 56.2628 108.25 55.7151 108.189C55.1634 108.128 54.5727 108.007 54.1118 107.776L53.8882 108.224Z" fill="black"/>
<path d="M4 111C6.5 112.5 6.5 115.5 4 117" stroke="black" stroke-width="0.5"/>
<path d="M4.01206 110.75C3.87415 110.744 3.75695 110.85 3.75029 110.988C3.74363 111.126 3.85002 111.243 3.98794 111.25L4.01206 110.75ZM3.98794 111.25C24.6914 112.25 36.0177 111.25 56.5 111.25V110.75C35.9773 110.75 24.7028 111.75 4.01206 110.75L3.98794 111.25Z" fill="black"/>
<path d="M4 117C24.5025 117 35.5 116 56.5 117" stroke="black" stroke-width="0.5"/>
<path d="M3.91222 117.234C4.0415 117.283 4.1856 117.217 4.23408 117.088C4.28256 116.959 4.21706 116.814 4.08778 116.766L3.91222 117.234ZM2.01404 114.314L1.76504 114.336L2.01404 114.314ZM2.5 115.5L2.69941 115.349L2.69941 115.349L2.5 115.5ZM4.5 114.5L4.67678 114.677L5.10355 114.25H4.5V114.5ZM3.91222 110.766C2.34238 111.355 1.63592 112.897 1.76504 114.336L2.26304 114.291C2.15004 113.032 2.76755 111.729 4.08778 111.234L3.91222 110.766ZM2.30059 115.651C2.45947 115.861 2.69991 116.194 2.97125 116.498C3.23688 116.796 3.56462 117.104 3.91222 117.234L4.08778 116.766C3.86266 116.681 3.60376 116.456 3.34425 116.165C3.09045 115.881 2.86724 115.571 2.69941 115.349L2.30059 115.651ZM1.76504 114.336C1.78117 114.516 1.92538 114.604 2.0015 114.64C2.09002 114.682 2.19767 114.708 2.30323 114.726C2.51844 114.762 2.79729 114.775 3.07759 114.778C3.3607 114.781 3.65736 114.774 3.91234 114.766C4.17171 114.758 4.38009 114.75 4.5 114.75V114.25C4.36991 114.25 4.14616 114.259 3.89707 114.266C3.64359 114.274 3.35544 114.281 3.08318 114.278C2.80811 114.275 2.56104 114.262 2.38553 114.232C2.29574 114.217 2.24184 114.201 2.21584 114.189C2.17743 114.17 2.25415 114.192 2.26304 114.291L1.76504 114.336ZM4.32322 114.323C4.23247 114.414 4.06994 114.51 3.85108 114.606C3.63754 114.701 3.39643 114.786 3.1659 114.866C2.94313 114.943 2.71877 115.019 2.56366 115.091C2.49065 115.125 2.40234 115.172 2.33874 115.235C2.30581 115.268 2.25938 115.326 2.24317 115.408C2.22463 115.503 2.25338 115.588 2.30059 115.651L2.69941 115.349C2.72502 115.383 2.74658 115.44 2.7338 115.505C2.72335 115.558 2.69563 115.586 2.69287 115.588C2.68962 115.592 2.70755 115.576 2.77488 115.544C2.90044 115.486 3.09314 115.42 3.32947 115.338C3.55805 115.259 3.81809 115.168 4.05343 115.064C4.28346 114.962 4.51753 114.836 4.67678 114.677L4.32322 114.323Z" fill="black"/>
<path d="M56.5 111C57.0248 111.262 57.412 111.697 57.6613 112.222C57.7381 112.384 55 113 55 113C55.5 113 57.9336 113.056 57.958 113.225C58.1533 114.568 57.6672 116.125 56.5 117" stroke="black" stroke-width="0.5" stroke-linecap="round"/>
<path d="M23.6426 11.1465C23.8021 11.1647 23.9365 11.1784 24.0459 11.1875C24.1553 11.1921 24.2419 11.1966 24.3057 11.2012C24.3831 11.2057 24.4447 11.208 24.4902 11.208C24.5677 11.208 24.6566 11.2057 24.7568 11.2012C24.8434 11.1966 24.9437 11.1898 25.0576 11.1807C25.1761 11.167 25.3037 11.1465 25.4404 11.1191C25.3766 11.1875 25.3242 11.2536 25.2832 11.3174C25.2422 11.3766 25.2103 11.4313 25.1875 11.4814C25.1602 11.5361 25.1374 11.5863 25.1191 11.6318C25.1009 11.6911 25.0804 11.7822 25.0576 11.9053C25.0348 12.0101 25.0098 12.1582 24.9824 12.3496C24.9596 12.541 24.93 12.7917 24.8936 13.1016C25.0485 13.1061 25.1829 13.1084 25.2969 13.1084C25.4108 13.1038 25.5065 13.1016 25.584 13.1016H25.8096C25.8734 13.097 25.9463 13.0924 26.0283 13.0879C26.165 13.0833 26.3724 13.0697 26.6504 13.0469C26.6732 12.8372 26.6846 12.6572 26.6846 12.5068C26.6891 12.3519 26.6868 12.222 26.6777 12.1172C26.6686 11.9987 26.6549 11.8984 26.6367 11.8164C26.623 11.7708 26.6025 11.7161 26.5752 11.6523C26.5524 11.5977 26.5205 11.5316 26.4795 11.4541C26.443 11.3721 26.3929 11.2741 26.3291 11.1602C26.4476 11.1784 26.5524 11.1921 26.6436 11.2012C26.7393 11.2057 26.819 11.2103 26.8828 11.2148C26.9557 11.2194 27.0173 11.2217 27.0674 11.2217C27.1175 11.2217 27.1836 11.2194 27.2656 11.2148C27.334 11.2103 27.4183 11.208 27.5186 11.208C27.6188 11.2035 27.7419 11.1966 27.8877 11.1875C27.8512 11.2513 27.8193 11.3174 27.792 11.3857C27.7646 11.4541 27.7419 11.5156 27.7236 11.5703C27.7054 11.6341 27.6872 11.6979 27.6689 11.7617C27.6462 11.8574 27.6257 11.9964 27.6074 12.1787C27.5938 12.361 27.5801 12.5638 27.5664 12.7871C27.5573 13.0104 27.5482 13.2428 27.5391 13.4844C27.5345 13.7259 27.5299 13.9538 27.5254 14.168C27.5254 14.3822 27.5277 14.5736 27.5322 14.7422C27.5368 14.9062 27.5459 15.0225 27.5596 15.0908C27.5732 15.1729 27.596 15.2572 27.6279 15.3438C27.6553 15.4212 27.6917 15.5055 27.7373 15.5967C27.7829 15.6833 27.8421 15.7653 27.915 15.8428L26.2676 15.9658C26.3359 15.902 26.3906 15.8405 26.4316 15.7812C26.4727 15.7174 26.5046 15.6628 26.5273 15.6172C26.5501 15.5671 26.5661 15.5192 26.5752 15.4736C26.5798 15.4189 26.5866 15.3232 26.5957 15.1865C26.6048 15.0726 26.6139 14.9108 26.623 14.7012C26.6322 14.4915 26.6413 14.2135 26.6504 13.8672C26.5866 13.8672 26.5091 13.8695 26.418 13.874C26.3314 13.874 26.2493 13.8763 26.1719 13.8809C26.0807 13.8854 25.985 13.8877 25.8848 13.8877C25.7845 13.8923 25.6797 13.8968 25.5703 13.9014C25.4792 13.9105 25.3766 13.9196 25.2627 13.9287C25.1533 13.9333 25.0439 13.9401 24.9346 13.9492C24.9255 14.1406 24.9255 14.3092 24.9346 14.4551C24.9437 14.5964 24.9574 14.7171 24.9756 14.8174C24.9938 14.9359 25.0166 15.0384 25.0439 15.125C25.0713 15.207 25.1009 15.2891 25.1328 15.3711C25.1602 15.444 25.1921 15.5215 25.2285 15.6035C25.2695 15.6855 25.3105 15.7585 25.3516 15.8223C25.265 15.8132 25.1852 15.8063 25.1123 15.8018C25.0394 15.7926 24.9756 15.7835 24.9209 15.7744C24.8571 15.7699 24.7956 15.7653 24.7363 15.7607C24.6771 15.7607 24.6064 15.7585 24.5244 15.7539C24.4515 15.7493 24.3604 15.7471 24.251 15.7471C24.1416 15.7425 24.014 15.7402 23.8682 15.7402C23.9548 15.6536 24.0231 15.5693 24.0732 15.4873C24.1279 15.4007 24.1667 15.3232 24.1895 15.2549C24.2168 15.1729 24.235 15.0977 24.2441 15.0293C24.2487 14.9701 24.251 14.8584 24.251 14.6943C24.2555 14.5303 24.2555 14.3434 24.251 14.1338C24.251 13.9196 24.2487 13.6963 24.2441 13.4639C24.2396 13.2269 24.2327 13.0059 24.2236 12.8008C24.2191 12.5957 24.2122 12.4202 24.2031 12.2744C24.1986 12.124 24.194 12.0306 24.1895 11.9941C24.1667 11.9121 24.1325 11.8232 24.0869 11.7275C24.0459 11.6501 23.9912 11.5612 23.9229 11.4609C23.8545 11.3561 23.7611 11.2513 23.6426 11.1465ZM28.0859 12.9443L29.3438 12.958C29.2708 13.236 29.2161 13.473 29.1797 13.6689C29.1478 13.8649 29.1273 14.029 29.1182 14.1611C29.0999 14.3115 29.0954 14.4391 29.1045 14.5439C29.1182 14.6396 29.141 14.7422 29.1729 14.8516C29.2002 14.9427 29.2412 15.0475 29.2959 15.166C29.3506 15.2845 29.4235 15.403 29.5146 15.5215C29.46 15.5033 29.4007 15.4896 29.3369 15.4805C29.2731 15.4714 29.2139 15.4645 29.1592 15.46C29.0954 15.4554 29.0316 15.4554 28.9678 15.46C28.904 15.4645 28.8333 15.4714 28.7559 15.4805C28.6921 15.4896 28.6146 15.501 28.5234 15.5146C28.4323 15.5283 28.3366 15.5465 28.2363 15.5693C28.3047 15.3643 28.3571 15.1865 28.3936 15.0361C28.4346 14.8857 28.4642 14.7604 28.4824 14.6602C28.5007 14.5417 28.512 14.446 28.5166 14.373C28.5166 14.2819 28.5166 14.1794 28.5166 14.0654C28.5166 13.9469 28.5166 13.833 28.5166 13.7236C28.5166 13.6143 28.5143 13.5186 28.5098 13.4365C28.5052 13.3499 28.4961 13.2952 28.4824 13.2725L28.4141 13.2041C28.3867 13.1813 28.3457 13.1494 28.291 13.1084C28.2409 13.0628 28.1725 13.0081 28.0859 12.9443ZM28.5713 11.8916C28.667 11.8415 28.7627 11.8278 28.8584 11.8506C28.9587 11.8734 29.0361 11.9167 29.0908 11.9805C29.1455 12.0443 29.1637 12.1195 29.1455 12.2061C29.1318 12.2926 29.0589 12.377 28.9268 12.459C28.7946 12.5365 28.6784 12.5638 28.5781 12.541C28.4779 12.5182 28.4072 12.4704 28.3662 12.3975C28.3252 12.3245 28.3184 12.2402 28.3457 12.1445C28.373 12.0443 28.4482 11.96 28.5713 11.8916ZM29.9727 15.248C30.0046 15.0977 30.0273 14.9655 30.041 14.8516C30.0592 14.7331 30.0729 14.6351 30.082 14.5576C30.0911 14.4665 30.0957 14.389 30.0957 14.3252C30.0911 14.2477 30.0866 14.1566 30.082 14.0518C30.082 13.9424 30.0775 13.8353 30.0684 13.7305C30.0638 13.6211 30.057 13.5254 30.0479 13.4434C30.0387 13.3568 30.0273 13.2952 30.0137 13.2588C29.9954 13.2223 29.9704 13.1836 29.9385 13.1426C29.8747 13.0651 29.7812 12.9899 29.6582 12.917C29.763 12.8942 29.8519 12.876 29.9248 12.8623C30.0023 12.8441 30.0661 12.8281 30.1162 12.8145C30.1709 12.7962 30.2188 12.7803 30.2598 12.7666C30.2962 12.7529 30.3395 12.7393 30.3896 12.7256C30.4307 12.7165 30.4808 12.7051 30.54 12.6914C30.5993 12.6777 30.6676 12.6618 30.7451 12.6436L30.7246 13.2656C30.8704 13.0924 31.0186 12.9626 31.1689 12.876C31.3193 12.7894 31.4606 12.7279 31.5928 12.6914C31.7432 12.6458 31.8913 12.623 32.0371 12.623C32.2194 12.6322 32.388 12.6618 32.543 12.7119C32.7025 12.762 32.8392 12.8213 32.9531 12.8896C33.0716 12.9535 33.1673 13.0218 33.2402 13.0947C33.3132 13.1676 33.3564 13.2314 33.3701 13.2861C33.4248 13.4639 33.4385 13.6279 33.4111 13.7783C33.3838 13.9242 33.3473 14.0677 33.3018 14.209C33.2607 14.3457 33.2243 14.4824 33.1924 14.6191C33.165 14.7559 33.1764 14.904 33.2266 15.0635C33.2448 15.1045 33.263 15.1455 33.2812 15.1865C33.2995 15.223 33.3223 15.2594 33.3496 15.2959C33.377 15.3324 33.4089 15.362 33.4453 15.3848C33.3952 15.3802 33.3451 15.3779 33.2949 15.3779C33.2448 15.3734 33.1992 15.3688 33.1582 15.3643C33.1081 15.3597 33.0625 15.3551 33.0215 15.3506C32.9759 15.346 32.9144 15.3438 32.8369 15.3438C32.7048 15.3438 32.4997 15.3506 32.2217 15.3643C32.2627 15.2686 32.2946 15.1888 32.3174 15.125C32.3447 15.0566 32.3675 15.002 32.3857 14.9609C32.404 14.9108 32.4176 14.8721 32.4268 14.8447C32.4814 14.7126 32.5133 14.5622 32.5225 14.3936C32.5361 14.2249 32.5247 14.054 32.4883 13.8809C32.4746 13.8216 32.4518 13.751 32.4199 13.6689C32.388 13.5869 32.3447 13.5072 32.29 13.4297C32.2399 13.3522 32.1784 13.2861 32.1055 13.2314C32.0371 13.1768 31.9574 13.1449 31.8662 13.1357C31.7751 13.1266 31.6725 13.1494 31.5586 13.2041C31.4492 13.2588 31.3307 13.359 31.2031 13.5049C31.1074 13.6279 31.0322 13.7783 30.9775 13.9561C30.9274 14.1064 30.8932 14.2956 30.875 14.5234C30.8568 14.7467 30.8841 15.0088 30.957 15.3096C30.8932 15.3005 30.834 15.2959 30.7793 15.2959C30.7246 15.2913 30.679 15.2868 30.6426 15.2822C30.597 15.2777 30.556 15.2731 30.5195 15.2686C30.4785 15.2686 30.4329 15.2663 30.3828 15.2617C30.3372 15.2617 30.2803 15.2617 30.2119 15.2617C30.1436 15.2572 30.0638 15.2526 29.9727 15.248ZM33.7803 11.6934C33.917 11.707 34.0309 11.7184 34.1221 11.7275C34.2178 11.7367 34.2952 11.7435 34.3545 11.748C34.4229 11.7526 34.4775 11.7549 34.5186 11.7549C34.5596 11.7594 34.6143 11.7594 34.6826 11.7549C34.7419 11.7503 34.8193 11.7458 34.915 11.7412C35.0107 11.7321 35.1315 11.7184 35.2773 11.7002C35.2454 11.7458 35.2204 11.7868 35.2021 11.8232C35.1839 11.8551 35.168 11.8848 35.1543 11.9121L35.1133 11.9941C35.1042 12.0215 35.0951 12.0488 35.0859 12.0762C35.0768 12.099 35.0677 12.1263 35.0586 12.1582C35.054 12.1901 35.0495 12.2243 35.0449 12.2607H36.0977L36.002 12.8145L35.0381 12.7598C35.0153 12.9922 34.9993 13.1722 34.9902 13.2998C34.9811 13.4274 34.972 13.5208 34.9629 13.5801L34.9492 13.7031C34.9355 13.8763 34.9219 14.0654 34.9082 14.2705C34.8945 14.471 34.89 14.6579 34.8945 14.8311C34.8991 15.0042 34.915 15.1501 34.9424 15.2686C34.9697 15.3825 35.0176 15.4395 35.0859 15.4395C35.1543 15.4395 35.2181 15.4212 35.2773 15.3848C35.3366 15.3483 35.3867 15.305 35.4277 15.2549C35.4733 15.2048 35.5075 15.1546 35.5303 15.1045C35.5531 15.0498 35.5645 15.0088 35.5645 14.9814C35.5645 14.9541 35.5576 14.9222 35.5439 14.8857C35.5212 14.8174 35.4801 14.7308 35.4209 14.626C35.5531 14.6579 35.6693 14.6898 35.7695 14.7217C35.8197 14.7399 35.8652 14.7581 35.9062 14.7764C35.9518 14.7946 36.0042 14.8151 36.0635 14.8379C36.1136 14.8607 36.1774 14.888 36.2549 14.9199C36.3324 14.9518 36.4235 14.9906 36.5283 15.0361C36.4281 15.0544 36.3551 15.084 36.3096 15.125C36.2822 15.1432 36.2617 15.1637 36.248 15.1865C36.2161 15.2367 36.1797 15.305 36.1387 15.3916C36.0977 15.4736 36.0361 15.5557 35.9541 15.6377C35.8721 15.7197 35.7604 15.7926 35.6191 15.8564C35.4824 15.9202 35.2979 15.9567 35.0654 15.9658C34.8239 15.9749 34.6393 15.9339 34.5117 15.8428C34.3887 15.7516 34.2975 15.6468 34.2383 15.5283C34.1836 15.4053 34.1517 15.2845 34.1426 15.166C34.1335 15.0475 34.1266 14.9678 34.1221 14.9268C34.1175 14.8857 34.1175 14.7832 34.1221 14.6191C34.1266 14.4551 34.1335 14.2751 34.1426 14.0791C34.1517 13.8786 34.1608 13.6872 34.1699 13.5049C34.179 13.318 34.1836 13.1813 34.1836 13.0947C34.1836 13.0492 34.1859 13.0013 34.1904 12.9512C34.1904 12.9102 34.1904 12.8669 34.1904 12.8213C34.195 12.7712 34.1973 12.7233 34.1973 12.6777L33.2061 12.6709L33.165 12.2812L34.1631 12.3086C34.154 12.2585 34.1426 12.2129 34.1289 12.1719C34.1198 12.1263 34.1107 12.0898 34.1016 12.0625C34.0879 12.0306 34.0742 12.0033 34.0605 11.9805C34.0423 11.9577 34.0218 11.9326 33.999 11.9053C33.9762 11.8825 33.9466 11.8529 33.9102 11.8164C33.8737 11.7799 33.8304 11.7389 33.7803 11.6934Z" fill="black"/>
</svg>
