<svg width="60" height="120" viewBox="0 0 60 120" fill="none" xmlns="http://www.w3.org/2000/svg">
<g clip-path="url(#clip0_0_3)">
<g opacity="1">
<path fill-rule="evenodd" clip-rule="evenodd" d="M57 8H3.00204H3C1.5 6.5 1.49999 4.5 3 3C3.17772 3.00846 3.35472 3.01678 3.53102 3.02496C16.7617 3.6387 26.0304 3.45597 36.717 3.24528C42.7145 3.12704 49.1585 3 57 3C57.26 3.34662 57.4599 3.67821 57.6075 4C57.5 4 53 5 53 5C53 5 57.5 5 57.9209 5.07563C58.0364 6.00442 57.7532 6.54735 57.2894 7.43662C57.1992 7.60952 57.1022 7.79552 57 8ZM56.7014 58.1431C56.7015 58.1597 56.7016 58.1763 56.7017 58.193L56.7014 58.1431ZM56.5 111C49.295 111 43.2265 111.123 37.4872 111.24C26.8947 111.456 17.4238 111.649 4 111C2.55497 111.542 1.89298 112.965 2.01404 114.314C2.0377 114.577 3.34708 114.535 4.0988 114.51C4.26762 114.505 4.40831 114.5 4.5 114.5C4.24213 114.758 3.67229 114.955 3.20457 115.117C2.76542 115.269 2.4163 115.389 2.5 115.5C2.52383 115.532 2.54912 115.565 2.57574 115.601C2.57949 115.606 2.58325 115.611 2.58705 115.616L2.58779 115.617C2.92724 116.071 3.47531 116.803 4 117C11.205 117 17.2361 116.877 22.94 116.76C24.2559 116.733 25.5546 116.706 26.846 116.682C35.8862 116.509 44.5824 116.432 56.5 117C57.6672 116.125 58.1533 114.568 57.958 113.225C57.9336 113.056 55.5 113 55 113C55 113 57.7381 112.384 57.6614 112.222C57.412 111.697 57.0249 111.262 56.5 111Z"/>
<path d="M57 8H3.00204C2.99555 9.05215 3.00482 10.0948 3.02618 11.1281C3.02943 11.2854 9.50013 11.1281 9.50013 11.1281C9.50013 11.1281 3.0218 12.3639 3.02618 12.522C3.11739 15.8197 3.32685 18.8059 3.52887 21.686C3.75187 24.8652 3.96581 27.9152 4.00162 31.1122C4.00233 31.1754 5.46002 31.1505 6.68151 31.1296C7.21195 31.1205 7.69785 31.1122 8.00054 31.1122C7.43032 31.3988 6.20929 31.8198 5.26555 32.1452C4.55471 32.3904 4.0012 32.5812 4.00162 32.6195C4.04766 36.7742 4.08638 40.7719 4.11626 44.678L4.12231 45.4835C4.12459 45.7932 8.10304 45.7176 9.53294 45.6905C9.76516 45.6861 9.93016 45.6829 10 45.6829C9.50013 45.6829 4.1352 47.3164 4.13766 47.6927C4.16426 51.7696 4.1806 55.7634 4.1849 59.7512C4.18526 60.0862 9.00027 60.2537 9.50013 60.2537C9.00027 60.2537 4.18602 61.426 4.18604 61.761C4.18609 62.7337 4.18763 63.492 4.18904 64.1901L4.18996 64.6557C4.19198 65.7284 4.19279 66.7379 4.18604 68.2927C4.18368 68.8371 7.65475 68.8092 9.09263 68.7976C9.25824 68.7962 9.39688 68.7951 9.50013 68.7951C9.09254 69 8.1347 69.1766 7.14274 69.3596C5.70167 69.6253 4.1886 69.9044 4.18604 70.3024C4.15028 75.8666 4.07891 82.4513 3.97675 89.3951C3.96938 89.8958 6.00108 90.4 6.50095 90.4H6.49668C5.98986 90.4 4.00955 90.4 4.00162 90.9024C3.96723 93.0833 3.92101 95.4796 3.86946 97.9366C3.86595 98.1038 6.00108 98.439 6.00108 98.439C6.00108 98.439 3.85028 98.8423 3.84595 99.0444C3.80062 101.158 3.86408 103.298 3.92549 105.37C3.98378 107.337 4.04023 109.241 4 111C17.4238 111.649 26.8947 111.456 37.4872 111.24C43.2265 111.123 49.295 111 56.5 111C57 110 57.0005 108.955 56.9996 108.292C56.4996 108.292 54.9997 108.292 53.9997 107.791C54.5538 107.513 55.2615 107.389 55.8665 107.283C56.3533 107.198 56.7737 107.124 56.9942 106.991C56.9771 100.412 56.9225 93.6626 56.8727 87.5016C56.8605 85.9925 56.8486 84.5187 56.8376 83.0913C56.3616 82.7722 54.4129 82.3973 52.5606 82.0409C50.9756 81.7359 49.4611 81.4445 49 81.2132C49.476 80.9746 51.198 80.7652 52.9085 80.5572C54.7915 80.3282 56.6605 80.101 56.8376 79.8382C56.7908 74.2452 56.7416 65.3814 56.7018 58.2122L56.7018 58.204L56.7017 58.1995L56.7017 58.193L56.7014 58.1431L56.6908 56.2316C56.6802 54.3229 56.6704 52.5844 56.6617 51.1256C56.0539 50.9376 55.3537 50.6719 54.6094 50.3895C53.9307 50.1319 53.2152 49.8604 52.4998 49.6212C52.9366 49.6212 53.4689 49.5255 54.0683 49.4178C54.8411 49.2788 55.7257 49.1198 56.6617 49.1198C56.657 48.1659 56.6528 47.3735 56.6491 46.6841C56.6323 43.5287 56.627 42.5304 56.6395 38.0876C55.4997 38.0876 54.4997 38.0876 52.9998 37.5862C53.802 37.318 54.3181 37.1932 54.8756 37.0585C55.3605 36.9413 55.8767 36.8165 56.6395 36.5833C56.6605 31.5656 56.7055 26.4158 56.7836 21.038C56.2947 20.7252 54.3606 20.2175 52.6103 19.758C51.5539 19.4806 50.5645 19.2209 49.9999 19.0321C50.5303 19.0321 52.1858 18.75 53.7408 18.485L53.9979 18.4412C55.2762 18.2236 56.4385 18.0292 56.7836 18.0292C56.842 14.8021 56.9138 11.4665 57 8Z"/>
<path fill-rule="evenodd" clip-rule="evenodd" d="M2.57574 115.601C2.57949 115.606 2.58325 115.611 2.58705 115.616L2.58779 115.617C2.58384 115.612 2.57963 115.606 2.57574 115.601Z" fill="white"/>
<path fill-rule="evenodd" clip-rule="evenodd" d="M0 0H60V120H0V0ZM3 3C3.17772 3.00846 3.35472 3.01678 3.53102 3.02496C16.7617 3.6387 26.0304 3.45597 36.717 3.24528C42.7145 3.12704 49.1585 3 57 3C57.26 3.34662 57.4599 3.67821 57.6075 4C57.5 4 53 5 53 5C53 5 57.5 5 57.9209 5.07563C58.0364 6.00442 57.7532 6.54735 57.2894 7.43662C57.1992 7.60952 57.1022 7.79552 57 8C56.9138 11.4665 56.842 14.8021 56.7836 18.0292C56.4385 18.0292 55.2762 18.2236 53.9979 18.4412L53.7408 18.485C52.1858 18.75 50.5303 19.0321 49.9999 19.0321C50.5645 19.2209 51.5539 19.4806 52.6103 19.758C54.3606 20.2175 56.2947 20.7252 56.7836 21.038C56.7055 26.4158 56.6605 31.5656 56.6395 36.5833C55.8767 36.8165 55.3605 36.9413 54.8756 37.0585C54.3181 37.1932 53.802 37.318 52.9998 37.5862C54.4997 38.0876 55.4997 38.0876 56.6395 38.0876C56.627 42.5304 56.6323 43.5287 56.6491 46.6841C56.6528 47.3735 56.657 48.1659 56.6617 49.1198C55.7257 49.1198 54.8411 49.2788 54.0683 49.4178C53.4689 49.5255 52.9366 49.6212 52.4998 49.6212C53.2152 49.8604 53.9307 50.1319 54.6094 50.3895C55.3537 50.6719 56.0539 50.9376 56.6617 51.1256C56.6704 52.5844 56.6802 54.3229 56.6908 56.2316L56.7014 58.1431L56.7017 58.193L56.7017 58.1995L56.7018 58.204L56.7018 58.2122C56.7416 65.3814 56.7908 74.2452 56.8376 79.8382C56.6605 80.101 54.7915 80.3282 52.9085 80.5572C51.198 80.7652 49.476 80.9746 49 81.2132C49.4611 81.4445 50.9756 81.7359 52.5606 82.0409C54.4129 82.3973 56.3616 82.7722 56.8376 83.0913C56.8486 84.5187 56.8605 85.9925 56.8727 87.5016C56.9225 93.6626 56.9771 100.412 56.9942 106.991C56.7737 107.124 56.3533 107.198 55.8665 107.283C55.2615 107.389 54.5538 107.513 53.9997 107.791C54.9997 108.292 56.4996 108.292 56.9996 108.292C57.0005 108.955 57 110 56.5 111C57.0249 111.262 57.412 111.697 57.6614 112.222C57.7381 112.384 55 113 55 113C55.5 113 57.9336 113.056 57.958 113.225C58.1533 114.568 57.6672 116.125 56.5 117C44.5824 116.432 35.8862 116.509 26.846 116.682C25.5546 116.706 24.2559 116.733 22.94 116.76C17.2361 116.877 11.205 117 4 117C3.47531 116.803 2.92724 116.071 2.58779 115.617L2.58705 115.616L2.57574 115.601C2.54912 115.565 2.52383 115.532 2.5 115.5C2.4163 115.389 2.76542 115.269 3.20457 115.117C3.67229 114.955 4.24213 114.758 4.5 114.5C4.40831 114.5 4.26762 114.505 4.0988 114.51C3.34708 114.535 2.0377 114.577 2.01404 114.314C1.89298 112.965 2.55497 111.542 4 111C4.04023 109.241 3.98378 107.337 3.92549 105.37C3.86408 103.298 3.80062 101.158 3.84595 99.0444C3.85028 98.8423 6.00108 98.439 6.00108 98.439C6.00108 98.439 3.86595 98.1038 3.86946 97.9366C3.92101 95.4796 3.96723 93.0833 4.00162 90.9024C4.00955 90.4 5.98986 90.4 6.49668 90.4H6.50095C6.00108 90.4 3.96938 89.8958 3.97675 89.3951C4.07891 82.4513 4.15028 75.8666 4.18604 70.3024C4.1886 69.9044 5.70167 69.6253 7.14274 69.3596C8.1347 69.1766 9.09254 69 9.50013 68.7951C9.39688 68.7951 9.25824 68.7962 9.09263 68.7976C7.65475 68.8092 4.18368 68.8371 4.18604 68.2927C4.19279 66.7379 4.19198 65.7284 4.18996 64.6557L4.18904 64.1901C4.18763 63.492 4.18609 62.7337 4.18604 61.761C4.18602 61.426 9.00027 60.2537 9.50013 60.2537C9.00027 60.2537 4.18526 60.0862 4.1849 59.7512C4.1806 55.7634 4.16426 51.7696 4.13766 47.6927C4.1352 47.3164 9.50013 45.6829 10 45.6829C9.93016 45.6829 9.76516 45.6861 9.53294 45.6905C8.10304 45.7176 4.12459 45.7932 4.12231 45.4835L4.11626 44.678C4.08638 40.7719 4.04766 36.7742 4.00162 32.6195C4.0012 32.5812 4.55471 32.3904 5.26555 32.1452C6.20929 31.8198 7.43032 31.3988 8.00054 31.1122C7.69785 31.1122 7.21195 31.1205 6.68151 31.1296C5.46002 31.1505 4.00233 31.1754 4.00162 31.1122C3.96581 27.9152 3.75187 24.8652 3.52887 21.686C3.32685 18.8059 3.11739 15.8197 3.02618 12.522C3.0218 12.3639 9.50013 11.1281 9.50013 11.1281C9.50013 11.1281 3.02943 11.2854 3.02618 11.1281C3.00482 10.0948 2.99555 9.05215 3.00204 8H3C1.5 6.5 1.49999 4.5 3 3Z" fill="white"/>
<path d="M3.53102 3.02496C3.35472 3.01678 3.17772 3.00846 3 3C1.49999 4.5 1.5 6.5 3 8M3.53102 3.02496C3.52074 3.01664 3.5104 3.00832 3.5 3M3.53102 3.02496C4.9584 4.18029 5.22199 5.33493 4.9001 6.39249C5 6.5 7 7 7 7C7 7 4.87095 7.26361 4.5 7.26361C4.2323 7.70271 3.3824 7.6176 3 8M3.53102 3.02496C16.7617 3.6387 26.0304 3.45597 36.717 3.24528C42.7145 3.12704 49.1585 3 57 3C57.26 3.34662 57.4599 3.67821 57.6075 4C57.5 4 53 5 53 5C53 5 57.5 5 57.9209 5.07563C58.0364 6.00442 57.7532 6.54735 57.2894 7.43662C57.1992 7.60952 57.1022 7.79552 57 8M3 8H3.00204M57 8H3.00204M57 8C56.9138 11.4665 56.842 14.8021 56.7836 18.0292C56.4385 18.0292 55.2762 18.2236 53.9979 18.4412M3.00204 8C2.99555 9.05215 3.00482 10.0948 3.02618 11.1281C3.02943 11.2854 9.50013 11.1281 9.50013 11.1281C9.50013 11.1281 3.0218 12.3639 3.02618 12.522C3.11739 15.8197 3.32685 18.8059 3.52887 21.686C3.75187 24.8652 3.96581 27.9152 4.00162 31.1122C4.00233 31.1754 5.46002 31.1505 6.68151 31.1296C7.21195 31.1205 7.69785 31.1122 8.00054 31.1122C7.43032 31.3988 6.20929 31.8198 5.26555 32.1452C4.55471 32.3904 4.0012 32.5812 4.00162 32.6195C4.04766 36.7742 4.08638 40.7719 4.11626 44.678L4.12231 45.4835C4.12459 45.7932 8.10304 45.7176 9.53294 45.6905C9.76516 45.6861 9.93016 45.6829 10 45.6829C9.50013 45.6829 4.1352 47.3164 4.13766 47.6927C4.16426 51.7696 4.1806 55.7634 4.1849 59.7512C4.18526 60.0862 9.00027 60.2537 9.50013 60.2537C9.00027 60.2537 4.18602 61.426 4.18604 61.761C4.18609 62.7337 4.18763 63.492 4.18904 64.1901M4 111C6.5 112.5 6.5 115.5 4 117M4 111C2.55497 111.542 1.89298 112.965 2.01404 114.314C2.0377 114.577 3.34708 114.535 4.0988 114.51C4.26762 114.505 4.40831 114.5 4.5 114.5C4.24213 114.758 3.67229 114.955 3.20457 115.117C2.76542 115.269 2.4163 115.389 2.5 115.5C2.52383 115.532 2.54912 115.565 2.57574 115.601M4 111C17.4238 111.649 26.8947 111.456 37.4872 111.24C43.2265 111.123 49.295 111 56.5 111M4 111C4.04023 109.241 3.98378 107.337 3.92549 105.37C3.86408 103.298 3.80062 101.158 3.84595 99.0444C3.85028 98.8423 6.00108 98.439 6.00108 98.439C6.00108 98.439 3.86595 98.1038 3.86946 97.9366C3.92101 95.4796 3.96723 93.0833 4.00162 90.9024C4.00955 90.4 5.98986 90.4 6.49668 90.4H6.50095C6.00108 90.4 3.96938 89.8958 3.97675 89.3951C4.07891 82.4513 4.15028 75.8666 4.18604 70.3024C4.1886 69.9044 5.70167 69.6253 7.14274 69.3596C8.1347 69.1766 9.09254 69 9.50013 68.7951C9.39688 68.7951 9.25824 68.7962 9.09263 68.7976C7.65475 68.8092 4.18368 68.8371 4.18604 68.2927C4.19279 66.7379 4.19198 65.7284 4.18996 64.6557M56.5 111C57 110 57.0005 108.955 56.9996 108.292C56.4996 108.292 54.9997 108.292 53.9997 107.791C54.5538 107.513 55.2615 107.389 55.8665 107.283C56.3533 107.198 56.7737 107.124 56.9942 106.991C56.9771 100.412 56.9225 93.6626 56.8727 87.5016C56.8605 85.9925 56.8486 84.5187 56.8376 83.0913C56.3616 82.7722 54.4129 82.3973 52.5606 82.0409C50.9756 81.7359 49.4611 81.4445 49 81.2132C49.476 80.9746 51.198 80.7652 52.9085 80.5572C54.7915 80.3282 56.6605 80.101 56.8376 79.8382C56.7908 74.2452 56.7416 65.3814 56.7018 58.2122M56.5 111C57.0249 111.262 57.412 111.697 57.6614 112.222C57.7381 112.384 55 113 55 113C55.5 113 57.9336 113.056 57.958 113.225C58.1533 114.568 57.6672 116.125 56.5 117C44.5824 116.432 35.8862 116.509 26.846 116.682C25.5546 116.706 24.2559 116.733 22.94 116.76C17.2361 116.877 11.205 117 4 117M4 117C3.47531 116.803 2.92724 116.071 2.58779 115.617M53.7408 18.485C52.1858 18.75 50.5303 19.0321 49.9999 19.0321C50.5645 19.2209 51.5539 19.4806 52.6103 19.758M53.7408 18.485C53.8268 18.4704 53.9126 18.4557 53.9979 18.4412M53.7408 18.485L53.9979 18.4412M52.6103 19.758C54.3606 20.2175 56.2947 20.7252 56.7836 21.038C56.7055 26.4158 56.6605 31.5656 56.6395 36.5833C55.8767 36.8165 55.3605 36.9413 54.8756 37.0585C54.3181 37.1932 53.802 37.318 52.9998 37.5862C54.4997 38.0876 55.4997 38.0876 56.6395 38.0876C56.627 42.5304 56.6323 43.5287 56.6491 46.6841C56.6528 47.3735 56.657 48.1659 56.6617 49.1198C55.7257 49.1198 54.8411 49.2788 54.0683 49.4178C53.4689 49.5255 52.9366 49.6212 52.4998 49.6212C53.2152 49.8604 53.9307 50.1319 54.6094 50.3895C55.3537 50.6719 56.0539 50.9376 56.6617 51.1256C56.6704 52.5844 56.6802 54.3229 56.6908 56.2316M52.6103 19.758V19.758ZM56.7017 58.1995C56.7017 58.1973 56.7017 58.1951 56.7017 58.193M56.7017 58.1995L56.7017 58.193M56.7017 58.1995L56.7018 58.204M56.7017 58.1995L56.7018 58.204M4.18904 64.1901C4.18936 64.3477 4.18967 64.5024 4.18996 64.6557M4.18904 64.1901L4.18996 64.6557M56.6908 56.2316C56.6943 56.852 56.6978 57.4905 56.7014 58.1431M56.6908 56.2316L56.7014 58.1431M56.7017 58.193L56.7014 58.1431M56.7017 58.193C56.7016 58.1763 56.7015 58.1597 56.7014 58.1431M2.58779 115.617L2.58705 115.616M2.58779 115.617C2.58384 115.612 2.57963 115.606 2.57574 115.601M56.7018 58.204L56.7018 58.2122M56.7018 58.204C56.7018 58.2067 56.7018 58.2095 56.7018 58.2122M2.57574 115.601C2.57949 115.606 2.58325 115.611 2.58705 115.616M2.57574 115.601L2.58705 115.616M0 0H60V120H0V0Z" stroke="black" stroke-width="0.5" stroke-linecap="round"/>
</g>
<path d="M23.6426 11.1465C23.8021 11.1647 23.9365 11.1784 24.0459 11.1875C24.1553 11.1921 24.2419 11.1966 24.3057 11.2012C24.3831 11.2057 24.4447 11.208 24.4902 11.208C24.5677 11.208 24.6566 11.2057 24.7568 11.2012C24.8434 11.1966 24.9437 11.1898 25.0576 11.1807C25.1761 11.167 25.3037 11.1465 25.4404 11.1191C25.3766 11.1875 25.3242 11.2536 25.2832 11.3174C25.2422 11.3766 25.2103 11.4313 25.1875 11.4814C25.1602 11.5361 25.1374 11.5863 25.1191 11.6318C25.1009 11.6911 25.0804 11.7822 25.0576 11.9053C25.0348 12.0101 25.0098 12.1582 24.9824 12.3496C24.9596 12.541 24.93 12.7917 24.8936 13.1016C25.0485 13.1061 25.1829 13.1084 25.2969 13.1084C25.4108 13.1038 25.5065 13.1016 25.584 13.1016H25.8096C25.8734 13.097 25.9463 13.0924 26.0283 13.0879C26.165 13.0833 26.3724 13.0697 26.6504 13.0469C26.6732 12.8372 26.6846 12.6572 26.6846 12.5068C26.6891 12.3519 26.6868 12.222 26.6777 12.1172C26.6686 11.9987 26.6549 11.8984 26.6367 11.8164C26.623 11.7708 26.6025 11.7161 26.5752 11.6523C26.5524 11.5977 26.5205 11.5316 26.4795 11.4541C26.443 11.3721 26.3929 11.2741 26.3291 11.1602C26.4476 11.1784 26.5524 11.1921 26.6436 11.2012C26.7393 11.2057 26.819 11.2103 26.8828 11.2148C26.9557 11.2194 27.0173 11.2217 27.0674 11.2217C27.1175 11.2217 27.1836 11.2194 27.2656 11.2148C27.334 11.2103 27.4183 11.208 27.5186 11.208C27.6188 11.2035 27.7419 11.1966 27.8877 11.1875C27.8512 11.2513 27.8193 11.3174 27.792 11.3857C27.7646 11.4541 27.7419 11.5156 27.7236 11.5703C27.7054 11.6341 27.6872 11.6979 27.6689 11.7617C27.6462 11.8574 27.6257 11.9964 27.6074 12.1787C27.5938 12.361 27.5801 12.5638 27.5664 12.7871C27.5573 13.0104 27.5482 13.2428 27.5391 13.4844C27.5345 13.7259 27.5299 13.9538 27.5254 14.168C27.5254 14.3822 27.5277 14.5736 27.5322 14.7422C27.5368 14.9062 27.5459 15.0225 27.5596 15.0908C27.5732 15.1729 27.596 15.2572 27.6279 15.3438C27.6553 15.4212 27.6917 15.5055 27.7373 15.5967C27.7829 15.6833 27.8421 15.7653 27.915 15.8428L26.2676 15.9658C26.3359 15.902 26.3906 15.8405 26.4316 15.7812C26.4727 15.7174 26.5046 15.6628 26.5273 15.6172C26.5501 15.5671 26.5661 15.5192 26.5752 15.4736C26.5798 15.4189 26.5866 15.3232 26.5957 15.1865C26.6048 15.0726 26.6139 14.9108 26.623 14.7012C26.6322 14.4915 26.6413 14.2135 26.6504 13.8672C26.5866 13.8672 26.5091 13.8695 26.418 13.874C26.3314 13.874 26.2493 13.8763 26.1719 13.8809C26.0807 13.8854 25.985 13.8877 25.8848 13.8877C25.7845 13.8923 25.6797 13.8968 25.5703 13.9014C25.4792 13.9105 25.3766 13.9196 25.2627 13.9287C25.1533 13.9333 25.0439 13.9401 24.9346 13.9492C24.9255 14.1406 24.9255 14.3092 24.9346 14.4551C24.9437 14.5964 24.9574 14.7171 24.9756 14.8174C24.9938 14.9359 25.0166 15.0384 25.0439 15.125C25.0713 15.207 25.1009 15.2891 25.1328 15.3711C25.1602 15.444 25.1921 15.5215 25.2285 15.6035C25.2695 15.6855 25.3105 15.7585 25.3516 15.8223C25.265 15.8132 25.1852 15.8063 25.1123 15.8018C25.0394 15.7926 24.9756 15.7835 24.9209 15.7744C24.8571 15.7699 24.7956 15.7653 24.7363 15.7607C24.6771 15.7607 24.6064 15.7585 24.5244 15.7539C24.4515 15.7493 24.3604 15.7471 24.251 15.7471C24.1416 15.7425 24.014 15.7402 23.8682 15.7402C23.9548 15.6536 24.0231 15.5693 24.0732 15.4873C24.1279 15.4007 24.1667 15.3232 24.1895 15.2549C24.2168 15.1729 24.235 15.0977 24.2441 15.0293C24.2487 14.9701 24.251 14.8584 24.251 14.6943C24.2555 14.5303 24.2555 14.3434 24.251 14.1338C24.251 13.9196 24.2487 13.6963 24.2441 13.4639C24.2396 13.2269 24.2327 13.0059 24.2236 12.8008C24.2191 12.5957 24.2122 12.4202 24.2031 12.2744C24.1986 12.124 24.194 12.0306 24.1895 11.9941C24.1667 11.9121 24.1325 11.8232 24.0869 11.7275C24.0459 11.6501 23.9912 11.5612 23.9229 11.4609C23.8545 11.3561 23.7611 11.2513 23.6426 11.1465ZM28.0859 12.9443L29.3438 12.958C29.2708 13.236 29.2161 13.473 29.1797 13.6689C29.1478 13.8649 29.1273 14.029 29.1182 14.1611C29.0999 14.3115 29.0954 14.4391 29.1045 14.5439C29.1182 14.6396 29.141 14.7422 29.1729 14.8516C29.2002 14.9427 29.2412 15.0475 29.2959 15.166C29.3506 15.2845 29.4235 15.403 29.5146 15.5215C29.46 15.5033 29.4007 15.4896 29.3369 15.4805C29.2731 15.4714 29.2139 15.4645 29.1592 15.46C29.0954 15.4554 29.0316 15.4554 28.9678 15.46C28.904 15.4645 28.8333 15.4714 28.7559 15.4805C28.6921 15.4896 28.6146 15.501 28.5234 15.5146C28.4323 15.5283 28.3366 15.5465 28.2363 15.5693C28.3047 15.3643 28.3571 15.1865 28.3936 15.0361C28.4346 14.8857 28.4642 14.7604 28.4824 14.6602C28.5007 14.5417 28.512 14.446 28.5166 14.373C28.5166 14.2819 28.5166 14.1794 28.5166 14.0654C28.5166 13.9469 28.5166 13.833 28.5166 13.7236C28.5166 13.6143 28.5143 13.5186 28.5098 13.4365C28.5052 13.3499 28.4961 13.2952 28.4824 13.2725L28.4141 13.2041C28.3867 13.1813 28.3457 13.1494 28.291 13.1084C28.2409 13.0628 28.1725 13.0081 28.0859 12.9443ZM28.5713 11.8916C28.667 11.8415 28.7627 11.8278 28.8584 11.8506C28.9587 11.8734 29.0361 11.9167 29.0908 11.9805C29.1455 12.0443 29.1637 12.1195 29.1455 12.2061C29.1318 12.2926 29.0589 12.377 28.9268 12.459C28.7946 12.5365 28.6784 12.5638 28.5781 12.541C28.4779 12.5182 28.4072 12.4704 28.3662 12.3975C28.3252 12.3245 28.3184 12.2402 28.3457 12.1445C28.373 12.0443 28.4482 11.96 28.5713 11.8916ZM29.9727 15.248C30.0046 15.0977 30.0273 14.9655 30.041 14.8516C30.0592 14.7331 30.0729 14.6351 30.082 14.5576C30.0911 14.4665 30.0957 14.389 30.0957 14.3252C30.0911 14.2477 30.0866 14.1566 30.082 14.0518C30.082 13.9424 30.0775 13.8353 30.0684 13.7305C30.0638 13.6211 30.057 13.5254 30.0479 13.4434C30.0387 13.3568 30.0273 13.2952 30.0137 13.2588C29.9954 13.2223 29.9704 13.1836 29.9385 13.1426C29.8747 13.0651 29.7812 12.9899 29.6582 12.917C29.763 12.8942 29.8519 12.876 29.9248 12.8623C30.0023 12.8441 30.0661 12.8281 30.1162 12.8145C30.1709 12.7962 30.2188 12.7803 30.2598 12.7666C30.2962 12.7529 30.3395 12.7393 30.3896 12.7256C30.4307 12.7165 30.4808 12.7051 30.54 12.6914C30.5993 12.6777 30.6676 12.6618 30.7451 12.6436L30.7246 13.2656C30.8704 13.0924 31.0186 12.9626 31.1689 12.876C31.3193 12.7894 31.4606 12.7279 31.5928 12.6914C31.7432 12.6458 31.8913 12.623 32.0371 12.623C32.2194 12.6322 32.388 12.6618 32.543 12.7119C32.7025 12.762 32.8392 12.8213 32.9531 12.8896C33.0716 12.9535 33.1673 13.0218 33.2402 13.0947C33.3132 13.1676 33.3564 13.2314 33.3701 13.2861C33.4248 13.4639 33.4385 13.6279 33.4111 13.7783C33.3838 13.9242 33.3473 14.0677 33.3018 14.209C33.2607 14.3457 33.2243 14.4824 33.1924 14.6191C33.165 14.7559 33.1764 14.904 33.2266 15.0635C33.2448 15.1045 33.263 15.1455 33.2812 15.1865C33.2995 15.223 33.3223 15.2594 33.3496 15.2959C33.377 15.3324 33.4089 15.362 33.4453 15.3848C33.3952 15.3802 33.3451 15.3779 33.2949 15.3779C33.2448 15.3734 33.1992 15.3688 33.1582 15.3643C33.1081 15.3597 33.0625 15.3551 33.0215 15.3506C32.9759 15.346 32.9144 15.3438 32.8369 15.3438C32.7048 15.3438 32.4997 15.3506 32.2217 15.3643C32.2627 15.2686 32.2946 15.1888 32.3174 15.125C32.3447 15.0566 32.3675 15.002 32.3857 14.9609C32.404 14.9108 32.4176 14.8721 32.4268 14.8447C32.4814 14.7126 32.5133 14.5622 32.5225 14.3936C32.5361 14.2249 32.5247 14.054 32.4883 13.8809C32.4746 13.8216 32.4518 13.751 32.4199 13.6689C32.388 13.5869 32.3447 13.5072 32.29 13.4297C32.2399 13.3522 32.1784 13.2861 32.1055 13.2314C32.0371 13.1768 31.9574 13.1449 31.8662 13.1357C31.7751 13.1266 31.6725 13.1494 31.5586 13.2041C31.4492 13.2588 31.3307 13.359 31.2031 13.5049C31.1074 13.6279 31.0322 13.7783 30.9775 13.9561C30.9274 14.1064 30.8932 14.2956 30.875 14.5234C30.8568 14.7467 30.8841 15.0088 30.957 15.3096C30.8932 15.3005 30.834 15.2959 30.7793 15.2959C30.7246 15.2913 30.679 15.2868 30.6426 15.2822C30.597 15.2777 30.556 15.2731 30.5195 15.2686C30.4785 15.2686 30.4329 15.2663 30.3828 15.2617C30.3372 15.2617 30.2803 15.2617 30.2119 15.2617C30.1436 15.2572 30.0638 15.2526 29.9727 15.248ZM33.7803 11.6934C33.917 11.707 34.0309 11.7184 34.1221 11.7275C34.2178 11.7367 34.2952 11.7435 34.3545 11.748C34.4229 11.7526 34.4775 11.7549 34.5186 11.7549C34.5596 11.7594 34.6143 11.7594 34.6826 11.7549C34.7419 11.7503 34.8193 11.7458 34.915 11.7412C35.0107 11.7321 35.1315 11.7184 35.2773 11.7002C35.2454 11.7458 35.2204 11.7868 35.2021 11.8232C35.1839 11.8551 35.168 11.8848 35.1543 11.9121L35.1133 11.9941C35.1042 12.0215 35.0951 12.0488 35.0859 12.0762C35.0768 12.099 35.0677 12.1263 35.0586 12.1582C35.054 12.1901 35.0495 12.2243 35.0449 12.2607H36.0977L36.002 12.8145L35.0381 12.7598C35.0153 12.9922 34.9993 13.1722 34.9902 13.2998C34.9811 13.4274 34.972 13.5208 34.9629 13.5801L34.9492 13.7031C34.9355 13.8763 34.9219 14.0654 34.9082 14.2705C34.8945 14.471 34.89 14.6579 34.8945 14.8311C34.8991 15.0042 34.915 15.1501 34.9424 15.2686C34.9697 15.3825 35.0176 15.4395 35.0859 15.4395C35.1543 15.4395 35.2181 15.4212 35.2773 15.3848C35.3366 15.3483 35.3867 15.305 35.4277 15.2549C35.4733 15.2048 35.5075 15.1546 35.5303 15.1045C35.5531 15.0498 35.5645 15.0088 35.5645 14.9814C35.5645 14.9541 35.5576 14.9222 35.5439 14.8857C35.5212 14.8174 35.4801 14.7308 35.4209 14.626C35.5531 14.6579 35.6693 14.6898 35.7695 14.7217C35.8197 14.7399 35.8652 14.7581 35.9062 14.7764C35.9518 14.7946 36.0042 14.8151 36.0635 14.8379C36.1136 14.8607 36.1774 14.888 36.2549 14.9199C36.3324 14.9518 36.4235 14.9906 36.5283 15.0361C36.4281 15.0544 36.3551 15.084 36.3096 15.125C36.2822 15.1432 36.2617 15.1637 36.248 15.1865C36.2161 15.2367 36.1797 15.305 36.1387 15.3916C36.0977 15.4736 36.0361 15.5557 35.9541 15.6377C35.8721 15.7197 35.7604 15.7926 35.6191 15.8564C35.4824 15.9202 35.2979 15.9567 35.0654 15.9658C34.8239 15.9749 34.6393 15.9339 34.5117 15.8428C34.3887 15.7516 34.2975 15.6468 34.2383 15.5283C34.1836 15.4053 34.1517 15.2845 34.1426 15.166C34.1335 15.0475 34.1266 14.9678 34.1221 14.9268C34.1175 14.8857 34.1175 14.7832 34.1221 14.6191C34.1266 14.4551 34.1335 14.2751 34.1426 14.0791C34.1517 13.8786 34.1608 13.6872 34.1699 13.5049C34.179 13.318 34.1836 13.1813 34.1836 13.0947C34.1836 13.0492 34.1859 13.0013 34.1904 12.9512C34.1904 12.9102 34.1904 12.8669 34.1904 12.8213C34.195 12.7712 34.1973 12.7233 34.1973 12.6777L33.2061 12.6709L33.165 12.2812L34.1631 12.3086C34.154 12.2585 34.1426 12.2129 34.1289 12.1719C34.1198 12.1263 34.1107 12.0898 34.1016 12.0625C34.0879 12.0306 34.0742 12.0033 34.0605 11.9805C34.0423 11.9577 34.0218 11.9326 33.999 11.9053C33.9762 11.8825 33.9466 11.8529 33.9102 11.8164C33.8737 11.7799 33.8304 11.7389 33.7803 11.6934Z" fill="black"/>
</g>
<defs>
<clipPath id="clip0_0_3">
<rect width="60" height="120" fill="white"/>
</clipPath>
</defs>
</svg>
