<svg width="60" height="60" viewBox="0 0 60 60" fill="none" xmlns="http://www.w3.org/2000/svg">
<g clip-path="url(#clip0_2_2)">
<rect width="60" height="60" fill="white"/>
<path d="M1 1V59" stroke="black" stroke-width="0.5"/>
<path d="M1 1H59" stroke="black" stroke-width="0.5" stroke-linecap="square"/>
<path d="M59 1V59" stroke="black" stroke-width="0.5"/>
<path d="M1 59H59" stroke="black" stroke-width="0.5" stroke-linecap="square"/>
<rect x="1" y="1" width="2" height="2" fill="black"/>
<rect x="5" y="1" width="2" height="2" fill="black"/>
<rect x="3" y="3" width="2" height="2" fill="black"/>
<rect x="1" y="5" width="2" height="2" fill="black"/>
<rect x="57" y="1" width="2" height="2" fill="black"/>
<rect x="53" y="1" width="2" height="2" fill="black"/>
<rect x="55" y="3" width="2" height="2" fill="black"/>
<rect x="57" y="5" width="2" height="2" fill="black"/>
<rect x="1" y="57" width="2" height="2" fill="black"/>
<rect x="1" y="53" width="2" height="2" fill="black"/>
<rect x="3" y="55" width="2" height="2" fill="black"/>
<rect x="5" y="57" width="2" height="2" fill="black"/>
<rect x="57" y="57" width="2" height="2" fill="black"/>
<rect x="53" y="57" width="2" height="2" fill="black"/>
<rect x="55" y="55" width="2" height="2" fill="black"/>
<rect x="57" y="53" width="2" height="2" fill="black"/>
<path d="M7 2.5H53" stroke="black" stroke-width="0.4"/>
<path d="M2.5 7V53" stroke="black" stroke-width="0.4"/>
<path d="M7 57.5H53" stroke="black" stroke-width="0.4"/>
<path d="M57.5 53V7" stroke="black" stroke-width="0.4"/>
</g>
<defs>
<clipPath id="clip0_2_2">
<rect width="60" height="60" fill="white"/>
</clipPath>
</defs>
</svg>
