<svg xmlns="http://www.w3.org/2000/svg" xmlns:xlink="http://www.w3.org/1999/xlink" width="500" zoomAndPan="magnify" viewBox="0 0 375 374.999991" height="500" preserveAspectRatio="xMidYMid meet" version="1.0"><defs><g/></defs><g fill="#000000" fill-opacity="1"><g transform="translate(72.351562, 339.374978)"><g><path d="M 58.09375 0.34375 C 47.59375 0.34375 39.078125 -3.09375 32.546875 -9.96875 C 26.015625 -16.851562 21 -26.070312 17.5 -37.625 C 14 -49.175781 11.664062 -61.832031 10.5 -75.59375 C 9.332031 -89.363281 8.75 -103.015625 8.75 -116.546875 C 8.75 -132.410156 10.90625 -147.925781 15.21875 -163.09375 C 19.539062 -178.257812 26.191406 -191.96875 35.171875 -204.21875 C 44.160156 -216.46875 55.535156 -226.207031 69.296875 -233.4375 C 83.066406 -240.675781 99.398438 -244.296875 118.296875 -244.296875 C 137.429688 -244.296875 154.753906 -240.328125 170.265625 -232.390625 C 185.785156 -224.460938 198.210938 -213.148438 207.546875 -198.453125 C 216.878906 -183.753906 221.546875 -166.253906 221.546875 -145.953125 C 221.546875 -127.753906 218.742188 -112.117188 213.140625 -99.046875 C 207.546875 -85.984375 200.023438 -75.304688 190.578125 -67.015625 C 181.128906 -58.734375 170.628906 -52.609375 159.078125 -48.640625 C 147.523438 -44.679688 135.796875 -42.875 123.890625 -43.21875 C 111.992188 -43.570312 100.914062 -45.847656 90.65625 -50.046875 C 91.820312 -44.453125 92.460938 -38.738281 92.578125 -32.90625 C 92.691406 -27.070312 91.753906 -21.644531 89.765625 -16.625 C 87.785156 -11.601562 84.285156 -7.519531 79.265625 -4.375 C 74.253906 -1.226562 67.195312 0.34375 58.09375 0.34375 Z M 121.796875 -97.65625 C 130.203125 -97.65625 137.492188 -100.742188 143.671875 -106.921875 C 149.859375 -113.109375 152.953125 -120.285156 152.953125 -128.453125 C 152.953125 -136.847656 149.859375 -144.132812 143.671875 -150.3125 C 137.492188 -156.5 130.203125 -159.59375 121.796875 -159.59375 C 113.398438 -159.59375 106.109375 -156.5 99.921875 -150.3125 C 93.742188 -144.132812 90.65625 -136.847656 90.65625 -128.453125 C 90.65625 -120.285156 93.742188 -113.109375 99.921875 -106.921875 C 106.109375 -100.742188 113.398438 -97.65625 121.796875 -97.65625 Z M 121.796875 -97.65625 "/></g></g></g></svg>